<svg version="1.1" id="Layer_1" xmlns="http://www.w3.org/2000/svg" xmlns:xlink="http://www.w3.org/1999/xlink" x="0px" y="0px" viewBox="0 0 2538 1653.653" enable-background="new 0 0 2538 1653.653" xml:space="preserve">
<g>
	<path d="M1193.0151,143.9141c22.2928-39.361,44.312-78.896,68.5457-117.0876c48.3678,79.12,93.0033,160.4792,136.4944,242.386   c23.4873,49.2134,43.7152,99.9697,61.1067,151.6715c90.3409-81.21,195.5853-146.8946,310.4341-187.2258   c8.9816,75.8855,12.1663,152.8162,3.9556,228.9255c-2.8112,24.9054-6.8173,49.7361-13.3605,73.9697   c30.9761-15.3265,64.0175-25.9256,96.6859-36.9724c93.5005-30.2548,188.3453-56.205,283.4136-81.1104   c-6.9666,54.4136-23.4871,110.1212-59.9622,152.3433c-5.623,7.688-15.1768,10.0269-23.2131,14.1569   c-34.8826,16.6701-69.4419,34.1363-102.4335,54.3641c-18.6355,11.5692-37.2461,23.6365-52.8462,39.2117   c13.8088-32.5439,30.2302-63.9929,46.6012-95.3423c-69.7153,21.1733-137.8129,47.5217-204.5924,76.5823   c-96.9343,42.7695-191.2565,92.3315-278.2883,152.9404c-23.9102-72.5516-50.8556-144.5806-88.3258-211.3099   c-37.1714-68.6704-75.1141-136.9424-115.6694-203.6721c-47.9697,78.1248-91.8341,158.688-135.0515,239.5247   c-22.4668,46.9744-42.0726,95.3422-58.892,144.6304c-3.3339,9.4796-4.5779,19.4816-6.892,29.2346   c-13.2117-6.0458-24.3082-16.0229-36.8976-23.2632c-89.7192-57.3743-185.111-105.4436-282.767-147.6906   c-50.6567-21.7206-101.9603-41.9734-154.11-59.8876c12.2164,23.4376,21.4719,48.2682,30.3793,73.1238   c-28.7869-26.7465-64.7142-43.9138-100.0447-60.2107c-20.4268-9.3302-41.5254-16.9933-62.3006-25.3285   c-16.2719-15.0027-26.1743-35.8775-31.6233-57.0757c-7.1158-30.2548-5.6974-62.2511,2.0404-92.2568   c58.2949,15.4507,115.8933,33.514,173.0935,52.5971c57.076,19.7304,114.7489,38.764,169.0383,65.4857   c-14.9283-56.5533-18.2625-115.4705-18.1629-173.7404c0.2736-43.0185,3.9559-85.9124,8.2605-128.6822   c41.4009,12.7388,80.762,31.6482,119.103,51.6768c67.7496,36.1266,130.8216,80.7374,188.3204,131.5432   c16.6204-50.4577,36.8977-99.6711,59.5143-147.7404C1146.7123,227.3882,1169.8014,185.6139,1193.0151,143.9141z" fill="#1095c1"/>
	<path d="M1141.5372,736.8414c40.182-74.0942,80.2645-148.3625,124.9003-219.869   c40.5551,66.1323,78.0997,134.0811,115.0969,202.2786c9.0815,17.3914,19.208,34.2605,27.095,52.2988   c29.1353,63.3457,54.0902,128.7068,72.1534,196.108c15.3265-35.5045,42.2969-64.3409,71.8051-88.6492   c48.4426-39.5601,103.8267-69.6405,160.3053-96.0885c49.6365-22.8654,100.517-43.1925,152.6421-59.6883   c-11.2211,15.4507-15.7246,34.3847-17.2177,53.1447c44.5862-46.452,97.6559-84.2454,155.0803-113.2063   c60.1609-30.9266,124.303-53.5429,189.5396-71.0589c76.7068-20.2773,155.2546-33.7876,234.3743-39.8832   c-46.2275,31.3494-78.4976,78.7714-102.8557,128.1844c-22.8159,47.1235-39.6101,97.0586-51.0298,148.0885   c-30.0808,98.2531-82.4792,190.1619-154.4834,263.7085c-100.4672,103.5529-235.4191,169.9091-376.0935,198.0989   c-36.4503,47.4718-84.9922,86.0615-140.7491,108.2548c-71.1333,28.4883-151.3231,31.8223-225.4174,13.4604   c-33.5886,23.9849-71.1831,43.1925-110.9918,54.0902c-38.7142-11.619-75.7365-29.3093-108.6035-52.9209   c-78.4978,18.0881-163.5395,12.7637-236.9868-21.447c-49.4375-22.6661-91.9084-58.7926-125.2484-101.4873   c-89.3958-17.8893-175.9053-51.1794-253.3085-99.4723c-75.2386-46.8751-141.2467-108.9269-191.0323-182.3991   c-29.5829-43.1676-53.4931-90.1171-72.0292-139.0323c-6.4689-17.7896-13.3857-35.5543-17.0431-54.1649   c-12.2662-49.9849-29.4833-98.9249-52.9956-144.7546c-23.5618-45.5812-54.5877-89.0225-97.7553-117.8589   c55.9562,3.4581,111.4894,12.2161,166.4008,23.4373c91.7344,19.2575,182.2746,47.5217,265.4749,91.2618   c44.2625,23.4871,86.3353,51.5523,123.0838,85.7381c8.2854,7.34,15.5005,15.7991,23.8852,23.0892   c-1.5671-18.6852-5.797-37.7438-17.2171-52.9956c41.9236,13.3359,83.0013,29.2097,123.4073,46.6509   c52.249,22.8405,103.453,48.5917,150.8754,80.4389c42.4214,28.936,83.3746,63.3705,107.3595,109.723   c12.9377-47.7708,29.8068-94.4217,48.7906-140.1272C1114.7657,791.728,1126.5093,763.4637,1141.5372,736.8414z" fill="#1095c1"/>
	<path d="M264.8976,1153.5649c32.867-10.9226,67.1774-17.0431,101.6119-20.203c6.892,14.9532,17.4662,27.7668,28.0902,40.207   c42.6203,48.8903,91.8835,92.3813,147.5163,125.97c66.0828,34.4595,141.0477,51.03,215.4405,50.1838   c8.9569-0.2488,17.5406-3.1101,26.4231-4.2047c10.3998,18.8594,27.1942,33.1656,43.3665,47.0243   c77.4281,63.2958,180.2595,89.8434,279.0848,83.8721c23.1885,20.3524,54.0403,28.4385,83.5984,34.6338   c27.1946,5.2498,54.7869,8.4594,82.4291,9.7778c36.2013-1.6917,73.0492-5.2747,107.0858-18.5359   c16.7694-6.693,33.7378-16.7943,41.6749-33.7629c18.6603,6.494,38.5896,4.5034,57.9468,3.7819   c71.3571-3.4585,142.1174-23.4124,203.8707-59.5389c22.4921-13.2615,43.9387-28.5132,62.9229-46.5267   c6.5183-6.1703,12.3655-13.0872,17.0427-20.7751c23.413,6.3447,47.7711,4.2545,71.6809,2.5627   c39.0125-3.2345,77.652-11.4948,114.5748-24.6068c25.2286-9.0814,50.3083-19.4564,72.5016-34.733   c36.251-24.3582,70.4617-51.9506,100.5923-83.5985c21.4468-21.9447,43.7395-44.1877,57.8223-71.8054   c35.3799,3.5083,70.7351,9.6537,104.4233,21.3229c22.6409,7.9865,45.3572,18.735,61.7039,36.8976   c-35.8284,35.0566-81.0359,59.7133-128.7068,74.5173c32.593,20.377,62.5493,45.4564,86.6335,75.5372   c-46.9243-5.9465-94.2222,0.2736-140.9231,5.2496c25.0549,24.9055,49.3875,50.8557,69.1431,80.3145   c-58.7681,17.043-119.825,27.6172-181.1301,26.6219c-57.8472,0.2737-115.6943-10.4248-169.8094-30.8768   c10.5742,13.4355,22.1185,26.0997,32.6677,39.61c14.2323,18.6852,37.5449,26.3483,58.9673,33.5139   c10.8477,3.5331,22.0687,5.8966,33.1405,8.8824c-59.3895,18.6853-121.5659,27.3188-183.6675,29.4087   c-98.8259,2.9609-197.6758-9.579-293.7892-32.0959c-37.0471,53.941-94.9192,91.212-157.2946,109.1259   c-81.2847,23.4874-171.4764,21.3477-249.2031-13.6344c-45.2329-20.1034-84.9421-52.4231-113.1815-93.1276   c-88.7986,21.0737-180.1598,32.2699-271.496,30.7024c-66.4063-1.5675-133.1854-9.9023-196.5311-30.3541   c29.11-8.3601,60.8825-14.4806,84.519-34.8081c13.6096-15.5997,26.2491-32.046,40.0825-47.4967   c-85.8876,33.2153-180.8067,38.49-271.0979,23.1389c-27.2194-4.5034-54.0407-11.0222-80.5382-18.561   c19.9788-29.4086,43.8643-56.0306,69.5907-80.5133c-46.8997-4.4285-94.347-11.3453-141.3712-4.9761   c23.9599-29.9559,53.6176-55.2346,86.3106-75.2137c-47.1733-15.9979-92.7795-39.5601-128.3335-75.0148   C217.3261,1172.499,241.2611,1161.8005,264.8976,1153.5649z" fill="#1095c1"/>
</g>
</svg>